# xmcd
#
# Track frame offsets: 
#        150
#        15163
#        37487
#        52810
#        65960
#        86249
#        97878
#        109091
#        123944
#        142395
#        158481
#        174020
#        192194
#        205561
#        222955
#        239857
#        259757
#        280560
#        297976
#        318126
#        334637
#
# Disc length: 4734 seconds
#
# Revision: 0
# Processed by: cddbd v1.5.1PL0 Copyright (c) Steve Scherf et al.
# Submitted via: ExactAudioCopy v0.95a5
#
DISCID=2f127c15
DTITLE=Eric Clapton - Me and Mr.Johnson
DYEAR=2004
DGENRE=Blues
TTITLE0=When You Got A Good Friend
TTITLE1=Little Queen of Spades
TTITLE2=They're Red Hot
TTITLE3=Me And The Devil Blues
TTITLE4=Travelling Riverside Blues
TTITLE5=Last Fair Deal Gone Down
TTITLE6=Stop Breakin' Down Blues
TTITLE7=Milkcow's Calf Blues
TTITLE8=Kind Hearted Woman Blues
TTITLE9=Come On In My Kitchen
TTITLE10=If I Had Posession Over Judgement Day
TTITLE11=Love In Vain
TTITLE12=32-20 Blues
TTITLE13=Hellhound On My Train
TTITLE14=(Wonderful Tonight)
TTITLE15=(I Shot The Sheriff)
TTITLE16=(Layla)
TTITLE17=(Lay Down Sally)
TTITLE18=(Further On Up The Road)
TTITLE19=(Cocaine)
TTITLE20=(Tears In Heaven)
EXTD=
EXTT0=
EXTT1=
EXTT2=
EXTT3=
EXTT4=
EXTT5=
EXTT6=
EXTT7=
EXTT8=
EXTT9=
EXTT10=
EXTT11=
EXTT12=
EXTT13=
EXTT14=
EXTT15=
EXTT16=
EXTT17=
EXTT18=
EXTT19=
EXTT20=
PLAYORDER=
